<?xml version="1.0" encoding="UTF-8" standalone="no"?>
<?xml version="1.0" encoding="utf-8"?><!-- Generator: Adobe Illustrator 24.0.1, SVG Export Plug-In . SVG Version: 6.00 Build 0)  -->

<svg
   version="1.1"
   id="Livello_1"
   width="300"
   height="72"
   viewBox="0 0 300 72"
   style="enable-background:new 0 0 300 72;"
   xml:space="preserve"
   sodipodi:docname="partner-natural-soap.svg"
   inkscape:version="1.2.1 (9c6d41e, 2022-07-14)"
   xmlns:inkscape="http://www.inkscape.org/namespaces/inkscape"
   xmlns:sodipodi="http://sodipodi.sourceforge.net/DTD/sodipodi-0.dtd"
   xmlns="http://www.w3.org/2000/svg"
   xmlns:svg="http://www.w3.org/2000/svg"><defs
   id="defs509" /><sodipodi:namedview
   id="namedview507"
   pagecolor="#505050"
   bordercolor="#eeeeee"
   borderopacity="1"
   inkscape:showpageshadow="0"
   inkscape:pageopacity="0"
   inkscape:pagecheckerboard="0"
   inkscape:deskcolor="#505050"
   showgrid="false"
   inkscape:zoom="1.6388889"
   inkscape:cx="136.0678"
   inkscape:cy="38.745763"
   inkscape:window-width="1440"
   inkscape:window-height="847"
   inkscape:window-x="1705"
   inkscape:window-y="79"
   inkscape:window-maximized="0"
   inkscape:current-layer="Livello_1" />
<style
   type="text/css"
   id="style470">
	.st0{fill:#FFFFFF;}
	.st1{fill:#9CC1DD;}
	.st2{fill:#7DC4A5;}
</style>
<g
   id="g504"
   transform="translate(0.00181081,0.005)">
	<g
   id="g496">
		<g
   id="g494">
			<path
   class="st0"
   d="m 85.17,24.93 v 0 c 0.19,0 0.34,0.15 0.34,0.34 v 2.7 c 0,0.31 0.39,0.45 0.59,0.22 0.99,-1.17 2.06,-2.06 3.22,-2.69 1.39,-0.76 2.91,-1.14 4.55,-1.14 1.67,0 3.15,0.42 4.44,1.27 1.29,0.85 2.25,1.99 2.86,3.42 0.62,1.44 0.92,3.67 0.92,6.71 V 46.9 c 0,0.19 -0.15,0.34 -0.34,0.34 h -2.19 c -0.19,0 -0.34,-0.15 -0.34,-0.34 V 36.6 c 0,-2.57 -0.11,-4.29 -0.32,-5.15 C 98.57,29.97 97.93,28.86 96.99,28.12 96.05,27.38 94.82,27 93.3,27 c -1.74,0 -3.29,0.57 -4.67,1.72 -1.37,1.15 -2.28,2.57 -2.72,4.27 -0.27,1.11 -0.41,3.13 -0.41,6.07 v 7.84 c 0,0.19 -0.15,0.34 -0.34,0.34 h -2.19 c -0.19,0 -0.34,-0.15 -0.34,-0.34 V 27.46 c 0.01,-1.39 1.14,-2.53 2.54,-2.53 z"
   id="path472"
   style="fill:#85c7a8;fill-opacity:1" />
			<path
   class="st0"
   d="M 127.96,27.42 V 46.9 c 0,0.19 -0.15,0.34 -0.34,0.34 h -2.15 c -0.19,0 -0.34,-0.15 -0.34,-0.34 v -2.59 c 0,-0.31 -0.38,-0.46 -0.58,-0.23 -1.05,1.13 -2.21,2.01 -3.47,2.63 -1.5,0.74 -3.13,1.11 -4.91,1.11 -3.16,0 -5.85,-1.14 -8.09,-3.43 -2.16,-2.21 -3.27,-4.88 -3.35,-8.01 -0.08,-3.14 1.09,-6.22 3.27,-8.48 2.28,-2.36 5.03,-3.54 8.25,-3.54 1.83,0 3.49,0.39 4.97,1.17 1.23,0.64 2.33,1.55 3.31,2.73 0.2,0.24 0.6,0.1 0.6,-0.21 v -2.77 c 0,-0.19 0.15,-0.34 0.34,-0.34 v 0 c 1.38,-0.01 2.49,1.11 2.49,2.48 z m -11.47,-0.29 c -1.6,0 -3.07,0.39 -4.42,1.18 -1.35,0.79 -2.43,1.89 -3.23,3.31 -0.8,1.42 -1.2,2.92 -1.2,4.51 0,1.57 0.4,3.07 1.21,4.51 0.81,1.43 1.89,2.55 3.25,3.35 1.36,0.8 2.82,1.2 4.37,1.2 1.57,0 3.06,-0.4 4.47,-1.19 1.41,-0.79 2.49,-1.86 3.25,-3.22 0.76,-1.35 1.14,-2.87 1.14,-4.57 0,-2.58 -0.85,-4.74 -2.55,-6.47 -1.72,-1.74 -3.81,-2.61 -6.29,-2.61 z"
   id="path474"
   style="fill:#85c7a8;fill-opacity:1" />
			<path
   class="st0"
   d="m 136.93,16.65 v 0 c 0.19,0 0.34,0.15 0.34,0.34 v 7.6 c 0,0.19 0.15,0.34 0.34,0.34 h 3.16 c 0.19,0 0.34,0.15 0.34,0.34 v 1.8 c 0,0.19 -0.15,0.34 -0.34,0.34 h -3.16 c -0.19,0 -0.34,0.15 -0.34,0.34 V 46.9 c 0,0.19 -0.15,0.34 -0.34,0.34 h -2.19 c -0.19,0 -0.34,-0.15 -0.34,-0.34 V 27.76 c 0,-0.19 -0.15,-0.34 -0.34,-0.34 h -3.24 c -0.19,0 -0.34,-0.15 -0.34,-0.34 v -1.8 c 0,-0.19 0.15,-0.34 0.34,-0.34 h 3.24 c 0.19,0 0.34,-0.15 0.34,-0.34 v -5.41 c 0,-1.41 1.13,-2.54 2.53,-2.54 z"
   id="path476"
   style="fill:#85c7a8;fill-opacity:1" />
			<path
   class="st0"
   d="m 145.77,24.93 v 0 c 0.19,0 0.34,0.15 0.34,0.34 v 10.08 c 0,2.54 0.14,4.29 0.41,5.25 0.41,1.37 1.19,2.45 2.35,3.24 1.16,0.79 2.54,1.19 4.14,1.19 1.6,0 2.96,-0.39 4.08,-1.16 1.12,-0.77 1.89,-1.79 2.31,-3.05 0.29,-0.86 0.43,-2.69 0.43,-5.48 V 25.27 c 0,-0.19 0.15,-0.34 0.34,-0.34 v 0 c 1.43,0 2.59,1.16 2.59,2.59 v 8.36 c 0,3.08 -0.36,5.39 -1.08,6.95 -0.72,1.56 -1.8,2.78 -3.24,3.66 -1.44,0.88 -3.25,1.32 -5.42,1.32 -2.17,0 -3.99,-0.44 -5.44,-1.32 -1.46,-0.88 -2.54,-2.11 -3.26,-3.69 -0.72,-1.58 -1.08,-3.95 -1.08,-7.13 v -8.22 c 0,-1.38 1.14,-2.52 2.53,-2.52 z"
   id="path478"
   style="fill:#85c7a8;fill-opacity:1" />
			<path
   class="st0"
   d="m 168.13,24.93 v 0 c 0.19,0 0.34,0.15 0.34,0.34 v 2.92 c 0.87,-1.28 1.8,-2.25 2.77,-2.88 0.97,-0.64 1.98,-0.95 3.03,-0.95 v 0 c 1.31,0 2.12,1.45 1.42,2.57 l -0.23,0.37 c -0.09,0.14 -0.26,0.19 -0.42,0.13 -0.49,-0.19 -0.9,-0.28 -1.25,-0.28 -0.96,0 -1.88,0.39 -2.77,1.18 -0.89,0.79 -1.57,2.01 -2.03,3.66 -0.36,1.27 -0.53,3.84 -0.53,7.71 v 7.21 c 0,0.19 -0.15,0.34 -0.34,0.34 h -2.25 c -0.19,0 -0.34,-0.15 -0.34,-0.34 V 27.53 c 0.01,-1.44 1.17,-2.6 2.6,-2.6 z"
   id="path480"
   style="fill:#85c7a8;fill-opacity:1" />
			<path
   class="st0"
   d="M 198.97,27.42 V 46.9 c 0,0.19 -0.15,0.34 -0.34,0.34 h -2.15 c -0.19,0 -0.34,-0.15 -0.34,-0.34 v -2.59 c 0,-0.31 -0.38,-0.46 -0.58,-0.23 -1.05,1.13 -2.21,2.01 -3.47,2.63 -1.5,0.74 -3.13,1.11 -4.91,1.11 -3.16,0 -5.85,-1.14 -8.09,-3.43 -2.16,-2.21 -3.27,-4.88 -3.35,-8.01 -0.08,-3.14 1.09,-6.22 3.27,-8.48 2.28,-2.36 5.03,-3.54 8.25,-3.54 1.83,0 3.49,0.39 4.97,1.17 1.23,0.64 2.33,1.55 3.31,2.73 0.2,0.24 0.6,0.1 0.6,-0.21 v -2.77 c 0,-0.19 0.15,-0.34 0.34,-0.34 v 0 c 1.37,-0.01 2.49,1.11 2.49,2.48 z m -11.48,-0.29 c -1.6,0 -3.07,0.39 -4.42,1.18 -1.35,0.79 -2.43,1.89 -3.23,3.31 -0.8,1.42 -1.2,2.92 -1.2,4.51 0,1.57 0.4,3.07 1.21,4.51 0.81,1.43 1.89,2.55 3.25,3.35 1.36,0.8 2.82,1.2 4.37,1.2 1.57,0 3.06,-0.4 4.47,-1.19 1.41,-0.79 2.49,-1.86 3.25,-3.22 0.76,-1.35 1.14,-2.87 1.14,-4.57 0,-2.58 -0.85,-4.74 -2.55,-6.47 -1.71,-1.74 -3.8,-2.61 -6.29,-2.61 z"
   id="path482"
   style="fill:#85c7a8;fill-opacity:1" />
			<path
   class="st0"
   d="m 205.01,16.32 v 0 c 0.19,0 0.34,0.15 0.34,0.34 V 46.9 c 0,0.19 -0.15,0.34 -0.34,0.34 h -2.19 c -0.19,0 -0.34,-0.15 -0.34,-0.34 V 18.85 c -0.01,-1.4 1.13,-2.53 2.53,-2.53 z"
   id="path484"
   style="fill:#85c7a8;fill-opacity:1" />
			<path
   class="st0"
   d="m 219.77,27.62 -1.37,1.42 c -0.13,0.13 -0.34,0.13 -0.48,0.01 -1.45,-1.34 -2.87,-2 -4.26,-2 -0.93,0 -1.73,0.31 -2.39,0.92 -0.66,0.62 -1,1.33 -1,2.15 0,0.72 0.27,1.42 0.82,2.07 0.55,0.67 1.7,1.46 3.45,2.36 2.14,1.11 3.59,2.17 4.36,3.2 0.75,1.04 1.13,2.21 1.13,3.51 0,1.83 -0.64,3.38 -1.93,4.65 -1.29,1.27 -2.9,1.91 -4.83,1.91 -1.29,0 -2.52,-0.28 -3.69,-0.84 -1.08,-0.52 -1.99,-1.21 -2.72,-2.09 -0.11,-0.13 -0.1,-0.32 0.01,-0.45 l 1.36,-1.55 c 0.13,-0.15 0.37,-0.15 0.5,0 1.39,1.47 2.86,2.2 4.41,2.2 1.15,0 2.13,-0.37 2.94,-1.11 0.81,-0.74 1.21,-1.61 1.21,-2.6 0,-0.82 -0.27,-1.55 -0.8,-2.19 -0.53,-0.63 -1.74,-1.42 -3.62,-2.38 -2.01,-1.04 -3.38,-2.06 -4.11,-3.08 -0.73,-1.01 -1.09,-2.17 -1.09,-3.47 0,-1.7 0.58,-3.1 1.74,-4.22 1.16,-1.12 2.62,-1.68 4.39,-1.68 1.97,0 3.95,0.92 5.95,2.77 0.14,0.13 0.15,0.36 0.02,0.49 z"
   id="path486"
   style="fill:#a5c3dd;fill-opacity:1" />
			<path
   class="st0"
   d="m 233.14,24.36 c 3.44,0 6.29,1.24 8.55,3.73 2.05,2.27 3.08,4.96 3.08,8.06 0,3.12 -1.09,5.84 -3.26,8.17 -2.17,2.33 -4.96,3.5 -8.37,3.5 -3.42,0 -6.22,-1.17 -8.39,-3.5 -2.17,-2.33 -3.26,-5.05 -3.26,-8.17 0,-3.09 1.03,-5.77 3.08,-8.04 2.26,-2.5 5.12,-3.75 8.57,-3.75 z m -0.01,2.81 c -2.39,0 -4.44,0.88 -6.15,2.65 -1.71,1.76 -2.57,3.9 -2.57,6.4 0,1.61 0.39,3.12 1.17,4.51 0.78,1.39 1.84,2.47 3.17,3.23 1.33,0.76 2.79,1.14 4.38,1.14 1.59,0 3.05,-0.38 4.38,-1.14 1.33,-0.76 2.39,-1.83 3.17,-3.23 0.78,-1.39 1.17,-2.9 1.17,-4.51 0,-2.5 -0.86,-4.63 -2.58,-6.4 -1.72,-1.77 -3.77,-2.65 -6.14,-2.65 z"
   id="path488"
   style="fill:#a5c3dd;fill-opacity:1" />
			<path
   class="st0"
   d="M 269.79,27.42 V 46.9 c 0,0.19 -0.15,0.34 -0.34,0.34 h -2.15 c -0.19,0 -0.34,-0.15 -0.34,-0.34 v -2.59 c 0,-0.31 -0.38,-0.46 -0.58,-0.23 -1.05,1.13 -2.21,2.01 -3.47,2.63 -1.5,0.74 -3.13,1.11 -4.91,1.11 -3.16,0 -5.85,-1.14 -8.09,-3.43 -2.16,-2.21 -3.27,-4.88 -3.35,-8.01 -0.08,-3.14 1.09,-6.22 3.27,-8.48 2.28,-2.36 5.03,-3.54 8.25,-3.54 1.83,0 3.49,0.39 4.97,1.17 1.23,0.64 2.33,1.55 3.31,2.73 0.2,0.24 0.6,0.1 0.6,-0.21 v -2.77 c 0,-0.19 0.15,-0.34 0.34,-0.34 v 0 c 1.37,-0.01 2.49,1.11 2.49,2.48 z m -11.48,-0.29 c -1.6,0 -3.07,0.39 -4.42,1.18 -1.35,0.79 -2.43,1.89 -3.23,3.31 -0.8,1.42 -1.2,2.92 -1.2,4.51 0,1.57 0.4,3.07 1.21,4.51 0.81,1.43 1.89,2.55 3.25,3.35 1.36,0.8 2.82,1.2 4.37,1.2 1.57,0 3.06,-0.4 4.47,-1.19 1.41,-0.79 2.49,-1.86 3.25,-3.22 0.76,-1.35 1.14,-2.87 1.14,-4.57 0,-2.58 -0.85,-4.74 -2.55,-6.47 -1.71,-1.74 -3.8,-2.61 -6.29,-2.61 z"
   id="path490"
   style="fill:#a5c3dd;fill-opacity:1" />
			<path
   class="st0"
   d="m 276.3,24.93 v 0 c 0.19,0 0.34,0.15 0.34,0.34 v 2.78 c 0,0.32 0.39,0.46 0.6,0.22 0.99,-1.18 2.09,-2.09 3.31,-2.74 1.47,-0.78 3.12,-1.17 4.94,-1.17 3.22,0 5.97,1.18 8.25,3.54 2.18,2.26 3.34,5.34 3.26,8.47 -0.08,3.13 -1.19,5.8 -3.35,8.01 -2.23,2.29 -4.93,3.43 -8.08,3.43 -1.78,0 -3.41,-0.37 -4.9,-1.11 -1.25,-0.62 -2.4,-1.5 -3.45,-2.63 -0.21,-0.22 -0.58,-0.07 -0.58,0.23 v 10.75 c 0,0.19 -0.15,0.34 -0.34,0.34 h -2.19 c -0.19,0 -0.34,-0.15 -0.34,-0.34 v -27.6 c 0,-1.38 1.13,-2.52 2.53,-2.52 z m 8.95,2.2 c -2.48,0 -4.57,0.87 -6.27,2.6 -1.7,1.73 -2.55,3.89 -2.55,6.47 0,1.69 0.38,3.22 1.14,4.57 0.76,1.35 1.84,2.42 3.25,3.22 1.41,0.79 2.9,1.19 4.47,1.19 1.54,0 2.99,-0.4 4.35,-1.2 1.36,-0.8 2.44,-1.91 3.24,-3.35 0.8,-1.43 1.21,-2.94 1.21,-4.51 0,-1.58 -0.4,-3.09 -1.2,-4.51 -0.8,-1.42 -1.87,-2.52 -3.22,-3.31 -1.35,-0.78 -2.82,-1.17 -4.42,-1.17 z"
   id="path492"
   style="fill:#a5c3dd;fill-opacity:1" />
		</g>
	</g>
	<path
   class="st0"
   d="m 62.99,62.75 c -4.33,4.33 -10,6.49 -15.67,6.49 -5.67,0 -11.34,-2.16 -15.67,-6.49 -3.71,-3.71 -5.83,-8.41 -6.36,-13.24 -0.02,-0.2 0.13,-0.37 0.33,-0.37 0.75,-0.01 1.5,-0.06 2.24,-0.15 0.18,-0.02 0.35,0.11 0.37,0.29 0.48,4.16 2.31,8.2 5.5,11.39 3.75,3.75 8.67,5.63 13.58,5.63 4.91,0 9.83,-1.88 13.58,-5.63 7.5,-7.5 7.5,-19.66 0,-27.17 C 57.7,30.31 53.66,28.47 49.5,28 c -0.18,-0.02 -0.31,-0.18 -0.29,-0.37 0.08,-0.74 0.13,-1.49 0.15,-2.24 0,-0.2 0.18,-0.36 0.37,-0.33 4.84,0.53 9.54,2.65 13.25,6.36 8.66,8.65 8.66,22.68 0.01,31.33 z"
   id="path498"
   style="fill:#a5c3dd;fill-opacity:1" />
	<path
   class="st0"
   d="m 46.85,22.87 c -0.75,0.01 -1.5,0.06 -2.24,0.15 -0.19,0.02 -0.35,-0.11 -0.37,-0.29 -0.47,-4.16 -2.31,-8.2 -5.5,-11.39 -3.75,-3.75 -8.67,-5.63 -13.59,-5.63 -4.92,0 -9.83,1.87 -13.58,5.62 -7.5,7.5 -7.5,19.67 0,27.17 3.19,3.19 7.23,5.03 11.39,5.5 0.19,0.02 0.31,0.18 0.29,0.37 -0.08,0.74 -0.13,1.49 -0.15,2.24 0,0.2 -0.18,0.36 -0.37,0.33 C 17.89,46.41 13.19,44.29 9.48,40.58 0.83,31.92 0.83,17.9 9.48,9.24 c 4.33,-4.33 10,-6.49 15.67,-6.49 5.67,0 11.34,2.17 15.67,6.49 3.71,3.71 5.83,8.41 6.36,13.25 0.03,0.21 -0.13,0.38 -0.33,0.38 z"
   id="path500"
   style="fill:#a5c3dd;fill-opacity:1" />
	<path
   class="st0"
   d="m 46.98,24.93 c -0.87,0.01 -1.75,0.08 -2.61,0.19 -4.65,0.62 -9.14,2.72 -12.71,6.29 -3.58,3.57 -5.67,8.06 -6.29,12.71 -0.11,0.87 -0.18,1.74 -0.19,2.61 0,0.19 0.15,0.34 0.34,0.34 0.87,-0.01 1.74,-0.08 2.61,-0.19 4.65,-0.62 9.14,-2.71 12.71,-6.29 3.58,-3.58 5.67,-8.07 6.29,-12.72 0.11,-0.87 0.18,-1.74 0.19,-2.61 -0.01,-0.18 -0.16,-0.33 -0.34,-0.33 z m -7.45,12.73 -1.22,-1.27 c -0.66,-0.68 -1.76,-0.7 -2.43,-0.02 l -0.23,0.23 c -0.13,0.13 -0.13,0.35 -0.01,0.48 l 2.19,2.28 c -0.39,0.35 -0.79,0.68 -1.21,0.98 l -1.15,-1.15 c -0.68,-0.68 -1.79,-0.66 -2.44,0.05 l -0.16,0.17 c -0.13,0.13 -0.12,0.34 0,0.47 l 1.73,1.8 c -0.46,0.26 -0.92,0.49 -1.39,0.71 l -0.43,-0.44 c -0.66,-0.68 -1.76,-0.7 -2.43,-0.02 l -0.23,0.23 c -0.13,0.13 -0.13,0.34 -0.01,0.48 l 0.66,0.68 c -0.7,0.22 -1.42,0.38 -2.14,0.52 -0.11,0.02 -0.22,-0.08 -0.2,-0.2 0.68,-3.7 2.45,-7.25 5.31,-10.12 2.86,-2.86 6.41,-4.64 10.12,-5.31 0.12,-0.02 0.22,0.08 0.2,0.2 -0.61,3.33 -2.12,6.55 -4.53,9.25 z"
   id="path502"
   style="fill:#85c7a8;fill-opacity:1" />
</g>
</svg>
