
<?xml version="1.0" encoding="UTF-8"?>
<svg xmlns="http://www.w3.org/2000/svg" xmlns:xlink="http://www.w3.org/1999/xlink" width="300" height="132" viewBox="0 0 1439 692" version="1.1">
<g id="surface1">
<rect width="1439" height="692" style="fill:rgb(100%,100%,100%);fill-opacity:1;stroke:none;"/>
<path style="fill:none;stroke-width:0.9375;stroke-linecap:butt;stroke-linejoin:miter;stroke:rgb(100%,100%,100%);stroke-opacity:1;stroke-miterlimit:10;" d="M 0 6920 L 14390 6920 L 14390 0 L 0 0 Z M 0 6920 " transform="matrix(0.1,0,0,-0.1,0,692)"/>
<path style=" stroke:none;fill-rule:nonzero;fill:rgb(100%,80.076599%,0%);fill-opacity:1;" d="M 712.898438 132.601563 C 720.601563 132.199219 728.300781 132.199219 736 132.398438 C 767.898438 133.601563 799.398438 142.300781 827.199219 157.800781 C 853.800781 172.398438 876.800781 192.898438 895.398438 216.699219 C 897.300781 219.199219 899.101563 222.101563 899.601563 225.300781 C 900.398438 230.5 898.898438 235.800781 896.199219 240.199219 C 892.199219 247.398438 883 250.300781 875.199219 249 C 870.199219 248.199219 866.300781 244.5 863.300781 240.699219 C 836.300781 208.398438 799.800781 183.601563 758.800781 173.101563 C 744.800781 169.398438 730.398438 167.101563 716 166.800781 C 698.800781 166.101563 681.601563 167.300781 664.800781 170.699219 C 648.5 173.800781 632.800781 179.5 617.898438 186.898438 C 590.5 201 567 221.898438 547.800781 245.800781 C 546.5 247.199219 545.101563 249.101563 543 249.199219 C 539.898438 249.5 536.898438 249.300781 533.898438 249.199219 C 537.398438 241.601563 541.800781 234.398438 546.398438 227.398438 C 568.101563 194.898438 598.800781 168.5 634.300781 152.199219 C 658.898438 140.800781 685.800781 134 712.898438 132.601563 "/>
<path style="fill:none;stroke-width:0.9375;stroke-linecap:butt;stroke-linejoin:miter;stroke:rgb(100%,80.076599%,0%);stroke-opacity:1;stroke-miterlimit:10;" d="M 7128.984375 5593.984375 C 7206.015625 5598.007813 7283.007813 5598.007813 7360 5596.015625 C 7678.984375 5583.984375 7993.984375 5496.992188 8271.992188 5341.992188 C 8538.007813 5196.015625 8768.007813 4991.015625 8953.984375 4753.007813 C 8973.007813 4728.007813 8991.015625 4698.984375 8996.015625 4666.992188 C 9003.984375 4615 8988.984375 4561.992188 8961.992188 4518.007813 C 8921.992188 4446.015625 8830 4416.992188 8751.992188 4430 C 8701.992188 4438.007813 8663.007813 4475 8633.007813 4513.007813 C 8363.007813 4836.015625 7998.007813 5083.984375 7588.007813 5188.984375 C 7448.007813 5226.015625 7303.984375 5248.984375 7160 5251.992188 C 6988.007813 5258.984375 6816.015625 5246.992188 6648.007813 5213.007813 C 6485 5181.992188 6328.007813 5125 6178.984375 5051.015625 C 5905 4910 5670 4701.015625 5478.007813 4461.992188 C 5465 4448.007813 5451.015625 4428.984375 5430 4428.007813 C 5398.984375 4425 5368.984375 4426.992188 5338.984375 4428.007813 C 5373.984375 4503.984375 5418.007813 4576.015625 5463.984375 4646.015625 C 5681.015625 4971.015625 5988.007813 5235 6343.007813 5398.007813 C 6588.984375 5511.992188 6858.007813 5580 7128.984375 5593.984375 Z M 7128.984375 5593.984375 " transform="matrix(0.1,0,0,-0.1,0,692)"/>
<path style=" stroke:none;fill-rule:nonzero;fill:rgb(6.665039%,6.665039%,51.367188%);fill-opacity:1;" d="M 919.398438 277.5 C 924.5 276.699219 929.800781 276.601563 935 276.800781 C 953.101563 277.5 970.601563 285.898438 982.898438 299 C 993.5 310.101563 1000.398438 324.699219 1001.699219 339.898438 C 1003.199219 356.101563 998.5 372.699219 988.800781 385.699219 C 981.101563 396.5 970.300781 405 958.101563 410 C 941.199219 417 921.699219 417.101563 904.800781 410.199219 C 883.800781 402 867.199219 383.300781 862 361.300781 C 859.101563 348.300781 859.699219 334.300781 864.800781 321.898438 C 873.601563 298.898438 895.101563 281.398438 919.398438 277.5 "/>
<path style="fill:none;stroke-width:0.9375;stroke-linecap:butt;stroke-linejoin:miter;stroke:rgb(6.665039%,6.665039%,51.367188%);stroke-opacity:1;stroke-miterlimit:10;" d="M 9193.984375 4145 C 9245 4153.007813 9298.007813 4153.984375 9350 4151.992188 C 9531.015625 4145 9706.015625 4061.015625 9828.984375 3930 C 9935 3818.984375 10003.984375 3673.007813 10016.992188 3521.015625 C 10031.992188 3358.984375 9985 3193.007813 9888.007813 3063.007813 C 9811.015625 2955 9703.007813 2870 9581.015625 2820 C 9411.992188 2750 9216.992188 2748.984375 9048.007813 2818.007813 C 8838.007813 2900 8671.992188 3086.992188 8620 3306.992188 C 8591.015625 3436.992188 8596.992188 3576.992188 8648.007813 3701.015625 C 8736.015625 3931.015625 8951.015625 4106.015625 9193.984375 4145 Z M 9193.984375 4145 " transform="matrix(0.1,0,0,-0.1,0,692)"/>
<path style=" stroke:none;fill-rule:nonzero;fill:rgb(6.665039%,6.665039%,51.367188%);fill-opacity:1;" d="M 428.398438 283.398438 C 434.800781 277.5 444.699219 276 452.601563 279.398438 C 457 281.300781 460.699219 284.699219 463.199219 288.800781 C 465.101563 292 466.601563 295.5 468.199219 298.800781 C 472.101563 306.898438 476.199219 314.898438 480 323 C 486.5 336.699219 493.398438 350.300781 499.898438 364.101563 C 507.601563 380 515.601563 395.699219 523 411.800781 C 513.101563 411.699219 503.300781 411.898438 493.5 411.601563 C 489 402.300781 484.898438 392.800781 480.101563 383.601563 C 455.699219 383.5 431.300781 383.5 406.898438 383.601563 C 402.101563 392.800781 398.101563 402.300781 393.601563 411.601563 C 383.898438 411.699219 374.101563 412 364.398438 411.398438 C 383 372.5 402.101563 333.800781 420.898438 294.898438 C 422.898438 290.800781 424.898438 286.5 428.398438 283.398438 "/>
<path style="fill:none;stroke-width:0.9375;stroke-linecap:butt;stroke-linejoin:miter;stroke:rgb(6.665039%,6.665039%,51.367188%);stroke-opacity:1;stroke-miterlimit:10;" d="M 4283.984375 4086.015625 C 4348.007813 4145 4446.992188 4160 4526.015625 4126.015625 C 4570 4106.992188 4606.992188 4073.007813 4631.992188 4031.992188 C 4651.015625 4000 4666.015625 3965 4681.992188 3931.992188 C 4721.015625 3851.015625 4761.992188 3771.015625 4800 3690 C 4865 3553.007813 4933.984375 3416.992188 4998.984375 3278.984375 C 5076.015625 3120 5156.015625 2963.007813 5230 2801.992188 C 5131.015625 2803.007813 5033.007813 2801.015625 4935 2803.984375 C 4890 2896.992188 4848.984375 2991.992188 4801.015625 3083.984375 C 4556.992188 3085 4313.007813 3085 4068.984375 3083.984375 C 4021.015625 2991.992188 3981.015625 2896.992188 3936.015625 2803.984375 C 3838.984375 2803.007813 3741.015625 2800 3643.984375 2806.015625 C 3830 3195 4021.015625 3581.992188 4208.984375 3971.015625 C 4228.984375 4011.992188 4248.984375 4055 4283.984375 4086.015625 Z M 4283.984375 4086.015625 " transform="matrix(0.1,0,0,-0.1,0,692)"/>
<path style=" stroke:none;fill-rule:nonzero;fill:rgb(6.665039%,6.665039%,51.367188%);fill-opacity:1;" d="M 535.699219 295.601563 C 538.898438 287.101563 546.5 280.5 555.199219 278.398438 C 563.101563 276.398438 571.800781 277.898438 578.300781 282.699219 C 582 285.398438 584.699219 289 587.398438 292.601563 C 603 313.300781 618.601563 334 634.300781 354.800781 C 637.800781 359.300781 641.101563 364 644.800781 368.398438 C 645.199219 345.601563 644.898438 322.800781 645 300 C 645 294.300781 644.300781 287.800781 648 283 C 653.101563 276.300781 664.300781 275.898438 669.800781 282.101563 C 673.101563 285.5 673.800781 290.5 673.800781 295 C 673.699219 323.699219 673.699219 352.300781 673.699219 381 C 673.699219 385.898438 674 390.800781 673.601563 395.699219 C 672.898438 403.398438 667.199219 410.300781 659.898438 412.699219 C 653.199219 414.898438 645.199219 413.800781 639.800781 409.199219 C 636.699219 406.601563 634.398438 403.199219 632 400 C 613.101563 374.601563 594 349.300781 575 324 C 570.898438 318.601563 566.898438 313 562.5 307.800781 C 562.5 335.199219 562.5 362.601563 562.5 390 C 562.5 397.300781 562.601563 404.5 562.300781 411.800781 C 552.800781 411.699219 543.300781 411.699219 533.898438 411.800781 C 533.5 378.800781 533.898438 345.898438 533.699219 313 C 533.699219 307.199219 533.601563 301.101563 535.699219 295.601563 "/>
<path style="fill:none;stroke-width:0.9375;stroke-linecap:butt;stroke-linejoin:miter;stroke:rgb(6.665039%,6.665039%,51.367188%);stroke-opacity:1;stroke-miterlimit:10;" d="M 5356.992188 3963.984375 C 5388.984375 4048.984375 5465 4115 5551.992188 4136.015625 C 5631.015625 4156.015625 5718.007813 4141.015625 5783.007813 4093.007813 C 5820 4066.015625 5846.992188 4030 5873.984375 3993.984375 C 6030 3786.992188 6186.015625 3580 6343.007813 3371.992188 C 6378.007813 3326.992188 6411.015625 3280 6448.007813 3236.015625 C 6451.992188 3463.984375 6448.984375 3691.992188 6450 3920 C 6450 3976.992188 6443.007813 4041.992188 6480 4090 C 6531.015625 4156.992188 6643.007813 4161.015625 6698.007813 4098.984375 C 6731.015625 4065 6738.007813 4015 6738.007813 3970 C 6736.992188 3683.007813 6736.992188 3396.992188 6736.992188 3110 C 6736.992188 3061.015625 6740 3011.992188 6736.015625 2963.007813 C 6728.984375 2886.015625 6671.992188 2816.992188 6598.984375 2793.007813 C 6531.992188 2771.015625 6451.992188 2781.992188 6398.007813 2828.007813 C 6366.992188 2853.984375 6343.984375 2888.007813 6320 2920 C 6131.015625 3173.984375 5940 3426.992188 5750 3680 C 5708.984375 3733.984375 5668.984375 3790 5625 3841.992188 C 5625 3568.007813 5625 3293.984375 5625 3020 C 5625 2946.992188 5626.015625 2875 5623.007813 2801.992188 C 5528.007813 2803.007813 5433.007813 2803.007813 5338.984375 2801.992188 C 5335 3131.992188 5338.984375 3461.015625 5336.992188 3790 C 5336.992188 3848.007813 5336.015625 3908.984375 5356.992188 3963.984375 Z M 5356.992188 3963.984375 " transform="matrix(0.1,0,0,-0.1,0,692)"/>
<path style=" stroke:none;fill-rule:nonzero;fill:rgb(6.665039%,6.665039%,51.367188%);fill-opacity:1;" d="M 711.800781 278.898438 C 718.101563 276 726.101563 278.398438 730 284 C 732.300781 287.101563 732.300781 291.199219 732.300781 295 C 732.199219 307.601563 732.300781 320.300781 732.199219 332.898438 C 759.5 333.101563 786.699219 333 814 333 C 814.101563 319.300781 813.898438 305.601563 814 291.898438 C 813.699219 284.300781 820.601563 277.800781 828 277.699219 C 833.199219 277.398438 838.601563 280.199219 841.101563 284.898438 C 842.601563 287.699219 842.699219 290.898438 842.800781 294 C 842.601563 333.199219 842.800781 372.5 842.699219 411.699219 C 833.101563 411.800781 823.601563 411.699219 814.101563 411.800781 C 813.898438 395.101563 814.101563 378.398438 814 361.699219 C 797.300781 361.398438 780.699219 361.601563 764 361.5 C 753.398438 361.601563 742.800781 361.300781 732.199219 361.699219 C 732.199219 378.398438 732.5 395.101563 732.101563 411.800781 C 722.5 411.699219 712.898438 411.800781 703.300781 411.699219 C 703.101563 373.800781 703.699219 335.898438 703.398438 298 C 703.398438 295.101563 703.300781 292.300781 703.699219 289.5 C 704.398438 284.898438 707.699219 281 711.800781 278.898438 "/>
<path style="fill:none;stroke-width:0.9375;stroke-linecap:butt;stroke-linejoin:miter;stroke:rgb(6.665039%,6.665039%,51.367188%);stroke-opacity:1;stroke-miterlimit:10;" d="M 7118.007813 4131.015625 C 7181.015625 4160 7261.015625 4136.015625 7300 4080 C 7323.007813 4048.984375 7323.007813 4008.007813 7323.007813 3970 C 7321.992188 3843.984375 7323.007813 3716.992188 7321.992188 3591.015625 C 7595 3588.984375 7866.992188 3590 8140 3590 C 8141.015625 3726.992188 8138.984375 3863.984375 8140 4001.015625 C 8136.992188 4076.992188 8206.015625 4141.992188 8280 4143.007813 C 8331.992188 4146.015625 8386.015625 4118.007813 8411.015625 4071.015625 C 8426.015625 4043.007813 8426.992188 4011.015625 8428.007813 3980 C 8426.015625 3588.007813 8428.007813 3195 8426.992188 2803.007813 C 8331.015625 2801.992188 8236.015625 2803.007813 8141.015625 2801.992188 C 8138.984375 2968.984375 8141.015625 3136.015625 8140 3303.007813 C 7973.007813 3306.015625 7806.992188 3303.984375 7640 3305 C 7533.984375 3303.984375 7428.007813 3306.992188 7321.992188 3303.007813 C 7321.992188 3136.015625 7325 2968.984375 7321.015625 2801.992188 C 7225 2803.007813 7128.984375 2801.992188 7033.007813 2803.007813 C 7031.015625 3181.992188 7036.992188 3561.015625 7033.984375 3940 C 7033.984375 3968.984375 7033.007813 3996.992188 7036.992188 4025 C 7043.984375 4071.015625 7076.992188 4110 7118.007813 4131.015625 Z M 7118.007813 4131.015625 " transform="matrix(0.1,0,0,-0.1,0,692)"/>
<path style=" stroke:none;fill-rule:nonzero;fill:rgb(6.665039%,6.665039%,51.367188%);fill-opacity:1;" d="M 1031.898438 281.800781 C 1039 276.898438 1048.601563 276.199219 1056.601563 279.398438 C 1062 281.601563 1066 286.101563 1068.898438 291 C 1075.101563 301.5 1081.199219 312.101563 1087.5 322.601563 C 1091.199219 328.898438 1094.699219 335.398438 1098.898438 341.5 C 1102.800781 335.699219 1106.101563 329.601563 1109.601563 323.601563 C 1115.800781 313.101563 1121.898438 302.601563 1128.101563 292.101563 C 1131.199219 286.800781 1135.398438 281.601563 1141.300781 279.300781 C 1152 275.300781 1165.300781 278.5 1172.101563 287.898438 C 1176.398438 293.601563 1177.101563 301.101563 1177 308 C 1176.898438 342.601563 1177.101563 377.199219 1176.898438 411.800781 C 1167.300781 411.699219 1157.699219 411.699219 1148.101563 411.800781 C 1147.800781 377.398438 1148.300781 343 1147.800781 308.601563 C 1142.601563 316.300781 1138.300781 324.5 1133.5 332.5 C 1123.800781 348.5 1114.398438 364.699219 1104.800781 380.800781 C 1103.398438 382.800781 1102.101563 385.199219 1099.800781 386.300781 C 1097.800781 386.898438 1095.898438 385.800781 1094.800781 384.300781 C 1092.199219 381 1090.398438 377.199219 1088.300781 373.699219 C 1078 356 1067.5 338.398438 1057.199219 320.699219 C 1054.699219 316.199219 1052.101563 311.699219 1049.101563 307.5 C 1048.5 315.300781 1048.800781 323.199219 1048.699219 331 C 1048.699219 357.898438 1048.800781 384.800781 1048.699219 411.699219 C 1039.199219 411.800781 1029.800781 411.800781 1020.300781 411.699219 C 1020.199219 379.101563 1020.300781 346.5 1020.199219 314 C 1020.300781 308.398438 1020.199219 302.800781 1021.5 297.300781 C 1022.898438 291.199219 1026.601563 285.398438 1031.898438 281.800781 "/>
<path style="fill:none;stroke-width:0.9375;stroke-linecap:butt;stroke-linejoin:miter;stroke:rgb(6.665039%,6.665039%,51.367188%);stroke-opacity:1;stroke-miterlimit:10;" d="M 10318.984375 4101.992188 C 10390 4151.015625 10486.015625 4158.007813 10566.015625 4126.015625 C 10620 4103.984375 10660 4058.984375 10688.984375 4010 C 10751.015625 3905 10811.992188 3798.984375 10875 3693.984375 C 10911.992188 3631.015625 10946.992188 3566.015625 10988.984375 3505 C 11028.007813 3563.007813 11061.015625 3623.984375 11096.015625 3683.984375 C 11158.007813 3788.984375 11218.984375 3893.984375 11281.015625 3998.984375 C 11311.992188 4051.992188 11353.984375 4103.984375 11413.007813 4126.992188 C 11520 4166.992188 11653.007813 4135 11721.015625 4041.015625 C 11763.984375 3983.984375 11771.015625 3908.984375 11770 3840 C 11768.984375 3493.984375 11771.015625 3148.007813 11768.984375 2801.992188 C 11673.007813 2803.007813 11576.992188 2803.007813 11481.015625 2801.992188 C 11478.007813 3146.015625 11483.007813 3490 11478.007813 3833.984375 C 11426.015625 3756.992188 11383.007813 3675 11335 3595 C 11238.007813 3435 11143.984375 3273.007813 11048.007813 3111.992188 C 11033.984375 3091.992188 11021.015625 3068.007813 10998.007813 3056.992188 C 10978.007813 3051.015625 10958.984375 3061.992188 10948.007813 3076.992188 C 10921.992188 3110 10903.984375 3148.007813 10883.007813 3183.007813 C 10780 3360 10675 3536.015625 10571.992188 3713.007813 C 10546.992188 3758.007813 10521.015625 3803.007813 10491.015625 3845 C 10485 3766.992188 10488.007813 3688.007813 10486.992188 3610 C 10486.992188 3341.015625 10488.007813 3071.992188 10486.992188 2803.007813 C 10391.992188 2801.992188 10298.007813 2801.992188 10203.007813 2803.007813 C 10201.992188 3128.984375 10203.007813 3455 10201.992188 3780 C 10203.007813 3836.015625 10201.992188 3891.992188 10215 3946.992188 C 10228.984375 4008.007813 10266.015625 4066.015625 10318.984375 4101.992188 Z M 10318.984375 4101.992188 " transform="matrix(0.1,0,0,-0.1,0,692)"/>
<path style=" stroke:none;fill-rule:nonzero;fill:rgb(6.665039%,6.665039%,51.367188%);fill-opacity:1;" d="M 153 281.199219 C 158.101563 279.5 163.601563 279.398438 168.898438 279.398438 C 185.898438 279.5 202.898438 279.398438 219.898438 279.5 C 223.898438 279.601563 228 279.5 232 280 C 238.699219 280.601563 243.898438 287.398438 243.5 294 C 243.601563 299.5 240.101563 304.898438 235 307 C 232.101563 308.101563 229 308 226 308.101563 C 208.398438 307.898438 190.699219 308.101563 173 307.898438 C 169.800781 308 166.601563 307.898438 163.5 308.699219 C 160.199219 309.5 157.398438 312.101563 156.199219 315.300781 C 154.300781 320 156 325.898438 160.101563 328.898438 C 162.398438 330.601563 165.300781 330.898438 168 331.199219 C 181 332.199219 194 333.398438 207 334.398438 C 212 334.898438 217 335.300781 221.898438 336.101563 C 231 337.601563 239.601563 342.398438 245.300781 349.699219 C 256.101563 363.101563 256.199219 384 245.601563 397.5 C 240.199219 404.398438 232.300781 409.101563 223.800781 410.898438 C 218 412.101563 211.898438 411.699219 206 411.699219 C 181.300781 411.699219 156.601563 411.699219 131.898438 411.800781 C 131.601563 402.199219 131.699219 392.601563 131.800781 383 C 157.898438 383 184 383 210 383.101563 C 212.699219 383 215.398438 383 217.898438 382 C 224.898438 379.398438 226.898438 368.601563 221.101563 363.800781 C 218.601563 361.601563 215.199219 361 212 360.699219 C 196 359.300781 180 357.800781 164.101563 356.5 C 155.5 355.800781 147 353.199219 140.300781 347.699219 C 128.898438 338.601563 123.699219 322.800781 127 308.699219 C 130.199219 295.898438 140.5 285.199219 153 281.199219 "/>
<path style="fill:none;stroke-width:0.9375;stroke-linecap:butt;stroke-linejoin:miter;stroke:rgb(6.665039%,6.665039%,51.367188%);stroke-opacity:1;stroke-miterlimit:10;" d="M 1530 4108.007813 C 1581.015625 4125 1636.015625 4126.015625 1688.984375 4126.015625 C 1858.984375 4125 2028.984375 4126.015625 2198.984375 4125 C 2238.984375 4123.984375 2280 4125 2320 4120 C 2386.992188 4113.984375 2438.984375 4046.015625 2435 3980 C 2436.015625 3925 2401.015625 3871.015625 2350 3850 C 2321.015625 3838.984375 2290 3840 2260 3838.984375 C 2083.984375 3841.015625 1906.992188 3838.984375 1730 3841.015625 C 1698.007813 3840 1666.015625 3841.015625 1635 3833.007813 C 1601.992188 3825 1573.984375 3798.984375 1561.992188 3766.992188 C 1543.007813 3720 1560 3661.015625 1601.015625 3631.015625 C 1623.984375 3613.984375 1653.007813 3611.015625 1680 3608.007813 C 1810 3598.007813 1940 3586.015625 2070 3576.015625 C 2120 3571.015625 2170 3566.992188 2218.984375 3558.984375 C 2310 3543.984375 2396.015625 3496.015625 2453.007813 3423.007813 C 2561.015625 3288.984375 2561.992188 3080 2456.015625 2945 C 2401.992188 2876.015625 2323.007813 2828.984375 2238.007813 2811.015625 C 2180 2798.984375 2118.984375 2803.007813 2060 2803.007813 C 1813.007813 2803.007813 1566.015625 2803.007813 1318.984375 2801.992188 C 1316.015625 2898.007813 1316.992188 2993.984375 1318.007813 3090 C 1578.984375 3090 1840 3090 2100 3088.984375 C 2126.992188 3090 2153.984375 3090 2178.984375 3100 C 2248.984375 3126.015625 2268.984375 3233.984375 2211.015625 3281.992188 C 2186.015625 3303.984375 2151.992188 3310 2120 3313.007813 C 1960 3326.992188 1800 3341.992188 1641.015625 3355 C 1555 3361.992188 1470 3388.007813 1403.007813 3443.007813 C 1288.984375 3533.984375 1236.992188 3691.992188 1270 3833.007813 C 1301.992188 3961.015625 1405 4068.007813 1530 4108.007813 Z M 1530 4108.007813 " transform="matrix(0.1,0,0,-0.1,0,692)"/>
<path style=" stroke:none;fill-rule:nonzero;fill:rgb(6.665039%,6.665039%,51.367188%);fill-opacity:1;" d="M 261.800781 281.800781 C 265.101563 279.699219 269.199219 279.398438 273 279.398438 C 303 279.5 333 279.398438 363 279.5 C 368.101563 279.5 373.300781 279.101563 378.398438 279.699219 C 384.898438 280.5 390 286.601563 390.101563 293 C 390.398438 298 388.101563 303.199219 383.800781 305.898438 C 380.601563 308 376.699219 308 373.101563 308.101563 C 361.101563 308 349 308 337 308 C 336.898438 342.601563 337.101563 377.199219 336.898438 411.800781 C 327.300781 411.699219 317.699219 411.699219 308.101563 411.800781 C 307.898438 377.199219 308.101563 342.601563 308 308 C 296 308 284 308 271.898438 308.101563 C 268.800781 308 265.398438 308 262.5 306.5 C 258.601563 304.300781 255.800781 300.199219 255.300781 295.800781 C 254.699219 290.398438 257.101563 284.601563 261.800781 281.800781 "/>
<path style="fill:none;stroke-width:0.9375;stroke-linecap:butt;stroke-linejoin:miter;stroke:rgb(6.665039%,6.665039%,51.367188%);stroke-opacity:1;stroke-miterlimit:10;" d="M 2618.007813 4101.992188 C 2651.015625 4123.007813 2691.992188 4126.015625 2730 4126.015625 C 3030 4125 3330 4126.015625 3630 4125 C 3681.015625 4125 3733.007813 4128.984375 3783.984375 4123.007813 C 3848.984375 4115 3900 4053.984375 3901.015625 3990 C 3903.984375 3940 3881.015625 3888.007813 3838.007813 3861.015625 C 3806.015625 3840 3766.992188 3840 3731.015625 3838.984375 C 3611.015625 3840 3490 3840 3370 3840 C 3368.984375 3493.984375 3371.015625 3148.007813 3368.984375 2801.992188 C 3273.007813 2803.007813 3176.992188 2803.007813 3081.015625 2801.992188 C 3078.984375 3148.007813 3081.015625 3493.984375 3080 3840 C 2960 3840 2840 3840 2718.984375 3838.984375 C 2688.007813 3840 2653.984375 3840 2625 3855 C 2586.015625 3876.992188 2558.007813 3918.007813 2553.007813 3961.992188 C 2546.992188 4016.015625 2571.015625 4073.984375 2618.007813 4101.992188 Z M 2618.007813 4101.992188 " transform="matrix(0.1,0,0,-0.1,0,692)"/>
<path style=" stroke:none;fill-rule:nonzero;fill:rgb(6.665039%,6.665039%,51.367188%);fill-opacity:1;" d="M 1208.398438 281.398438 C 1211.601563 279.699219 1215.398438 279.5 1219 279.398438 C 1243.300781 279.5 1267.699219 279.5 1292 279.398438 C 1296 279.5 1300.300781 279.800781 1303.601563 282.398438 C 1307.699219 285.5 1309.601563 290.898438 1308.800781 296 C 1308.101563 301.699219 1303.5 306.898438 1297.699219 307.699219 C 1292.800781 308.300781 1287.898438 308 1283 308 C 1264.898438 308 1246.898438 307.898438 1228.800781 308 C 1228.601563 316.101563 1228.699219 324.199219 1228.800781 332.300781 C 1250.601563 332.601563 1272.300781 332.398438 1294 332.398438 C 1294.398438 341.199219 1294.398438 350 1294.101563 358.699219 C 1272.398438 358.800781 1250.601563 358.601563 1228.800781 358.800781 C 1228.601563 366.898438 1228.699219 374.898438 1228.800781 383 C 1254.800781 383.101563 1280.800781 382.898438 1306.800781 383.101563 C 1306.699219 392.601563 1306.800781 402.101563 1306.699219 411.601563 C 1271.800781 411.5 1236.898438 411.5 1202 411.601563 C 1201.5 403.398438 1201.699219 395.199219 1201.699219 387 C 1201.699219 359.699219 1201.699219 332.300781 1201.699219 305 C 1201.800781 300 1201.300781 295 1202.101563 290.101563 C 1202.601563 286.398438 1205.101563 283.199219 1208.398438 281.398438 "/>
<path style="fill:none;stroke-width:0.9375;stroke-linecap:butt;stroke-linejoin:miter;stroke:rgb(6.665039%,6.665039%,51.367188%);stroke-opacity:1;stroke-miterlimit:10;" d="M 12083.984375 4106.015625 C 12116.015625 4123.007813 12153.984375 4125 12190 4126.015625 C 12433.007813 4125 12676.992188 4125 12920 4126.015625 C 12960 4125 13003.007813 4121.992188 13036.015625 4096.015625 C 13076.992188 4065 13096.015625 4011.015625 13088.007813 3960 C 13081.015625 3903.007813 13035 3851.015625 12976.992188 3843.007813 C 12928.007813 3836.992188 12878.984375 3840 12830 3840 C 12648.984375 3840 12468.984375 3841.015625 12288.007813 3840 C 12286.015625 3758.984375 12286.992188 3678.007813 12288.007813 3596.992188 C 12506.015625 3593.984375 12723.007813 3596.015625 12940 3596.015625 C 12943.984375 3508.007813 12943.984375 3420 12941.015625 3333.007813 C 12723.984375 3331.992188 12506.015625 3333.984375 12288.007813 3331.992188 C 12286.015625 3251.015625 12286.992188 3171.015625 12288.007813 3090 C 12548.007813 3088.984375 12808.007813 3091.015625 13068.007813 3088.984375 C 13066.992188 2993.984375 13068.007813 2898.984375 13066.992188 2803.984375 C 12718.007813 2805 12368.984375 2805 12020 2803.984375 C 12015 2886.015625 12016.992188 2968.007813 12016.992188 3050 C 12016.992188 3323.007813 12016.992188 3596.992188 12016.992188 3870 C 12018.007813 3920 12013.007813 3970 12021.015625 4018.984375 C 12026.015625 4056.015625 12051.015625 4088.007813 12083.984375 4106.015625 Z M 12083.984375 4106.015625 " transform="matrix(0.1,0,0,-0.1,0,692)"/>
<path style=" stroke:none;fill-rule:nonzero;fill:rgb(100%,100%,100%);fill-opacity:1;" d="M 443.398438 302.898438 C 446.398438 308.300781 448.800781 314 451.398438 319.601563 C 457.300781 332.101563 463.199219 344.5 469 357.101563 C 452 357.5 435.101563 357.300781 418.101563 357.199219 C 426.398438 339 434.800781 320.898438 443.398438 302.898438 "/>
<path style="fill:none;stroke-width:0.9375;stroke-linecap:butt;stroke-linejoin:miter;stroke:rgb(100%,100%,100%);stroke-opacity:1;stroke-miterlimit:10;" d="M 4433.984375 3891.015625 C 4463.984375 3836.992188 4488.007813 3780 4513.984375 3723.984375 C 4573.007813 3598.984375 4631.992188 3475 4690 3348.984375 C 4520 3345 4351.015625 3346.992188 4181.015625 3348.007813 C 4263.984375 3530 4348.007813 3711.015625 4433.984375 3891.015625 Z M 4433.984375 3891.015625 " transform="matrix(0.1,0,0,-0.1,0,692)"/>
<path style=" stroke:none;fill-rule:nonzero;fill:rgb(100%,100%,100%);fill-opacity:1;" d="M 924.398438 303.800781 C 930.898438 302.699219 937.601563 303.101563 943.898438 305.199219 C 952.800781 308.101563 960.601563 314.398438 965.601563 322.398438 C 973.398438 334.699219 974.398438 351 968.101563 364.199219 C 963.398438 374.300781 954.699219 382.601563 944.199219 386.300781 C 933.5 390.398438 921.199219 389.300781 911.398438 383.601563 C 901.300781 378 894.101563 368 891.300781 357 C 888.199219 344.800781 890.699219 331.199219 898 321 C 904.199219 312.199219 913.800781 305.699219 924.398438 303.800781 "/>
<path style="fill:none;stroke-width:0.9375;stroke-linecap:butt;stroke-linejoin:miter;stroke:rgb(100%,100%,100%);stroke-opacity:1;stroke-miterlimit:10;" d="M 9243.984375 3881.992188 C 9308.984375 3893.007813 9376.015625 3888.984375 9438.984375 3868.007813 C 9528.007813 3838.984375 9606.015625 3776.015625 9656.015625 3696.015625 C 9733.984375 3573.007813 9743.984375 3410 9681.015625 3278.007813 C 9633.984375 3176.992188 9546.992188 3093.984375 9441.992188 3056.992188 C 9335 3016.015625 9211.992188 3026.992188 9113.984375 3083.984375 C 9013.007813 3140 8941.015625 3240 8913.007813 3350 C 8881.992188 3471.992188 8906.992188 3608.007813 8980 3710 C 9041.992188 3798.007813 9138.007813 3863.007813 9243.984375 3881.992188 Z M 9243.984375 3881.992188 " transform="matrix(0.1,0,0,-0.1,0,692)"/>
<path style=" stroke:none;fill-rule:nonzero;fill:rgb(100%,80.076599%,0%);fill-opacity:1;" d="M 544.199219 447.199219 C 550.5 442.398438 559.800781 441.199219 566.800781 445.199219 C 570.601563 447.199219 573.300781 450.699219 576 454 C 580.601563 460 586 465.300781 591.5 470.5 C 609.101563 487.101563 629.601563 500.800781 652 510 C 685.398438 524.199219 722.5 528.398438 758.398438 524.199219 C 780.199219 521.199219 801.601563 514.398438 820.898438 504 C 847.5 489.898438 870.5 469.699219 889.300781 446.300781 C 890.601563 444.898438 891.898438 443 894.101563 442.800781 C 897.101563 442.5 900.199219 442.699219 903.199219 442.800781 C 899.699219 451 895 458.601563 890 466 C 883 476.199219 875.300781 485.898438 866.699219 494.699219 C 829.601563 533.300781 777.601563 557.5 724 560.101563 C 680.199219 562.398438 635.699219 550.800781 598.601563 527.398438 C 577.101563 513.898438 558.101563 496.5 542.5 476.5 C 539.699219 472.898438 537.300781 468.699219 537.199219 464 C 537 457.800781 539.101563 451.101563 544.199219 447.199219 "/>
<path style="fill:none;stroke-width:0.9375;stroke-linecap:butt;stroke-linejoin:miter;stroke:rgb(100%,80.076599%,0%);stroke-opacity:1;stroke-miterlimit:10;" d="M 5441.992188 2448.007813 C 5505 2496.015625 5598.007813 2508.007813 5668.007813 2468.007813 C 5706.015625 2448.007813 5733.007813 2413.007813 5760 2380 C 5806.015625 2320 5860 2266.992188 5915 2215 C 6091.015625 2048.984375 6296.015625 1911.992188 6520 1820 C 6853.984375 1678.007813 7225 1636.015625 7583.984375 1678.007813 C 7801.992188 1708.007813 8016.015625 1776.015625 8208.984375 1880 C 8475 2021.015625 8705 2223.007813 8893.007813 2456.992188 C 8906.015625 2471.015625 8918.984375 2490 8941.015625 2491.992188 C 8971.015625 2495 9001.992188 2493.007813 9031.992188 2491.992188 C 8996.992188 2410 8950 2333.984375 8900 2260 C 8830 2158.007813 8753.007813 2061.015625 8666.992188 1973.007813 C 8296.015625 1586.992188 7776.015625 1345 7240 1318.984375 C 6801.992188 1296.015625 6356.992188 1411.992188 5986.015625 1646.015625 C 5771.015625 1781.015625 5581.015625 1955 5425 2155 C 5396.992188 2191.015625 5373.007813 2233.007813 5371.992188 2280 C 5370 2341.992188 5391.015625 2408.984375 5441.992188 2448.007813 Z M 5441.992188 2448.007813 " transform="matrix(0.1,0,0,-0.1,0,692)"/>
</g>
</svg>
