
<?xml version="1.0" encoding="UTF-8" standalone="no"?>
<!-- Generator: Adobe Illustrator 22.0.1, SVG Export Plug-In . SVG Version: 6.00 Build 0)  -->
<svg xmlns:dc="http://purl.org/dc/elements/1.1/" xmlns:cc="http://creativecommons.org/ns#" xmlns:rdf="http://www.w3.org/1999/02/22-rdf-syntax-ns#" xmlns:svg="http://www.w3.org/2000/svg" xmlns="http://www.w3.org/2000/svg" xmlns:sodipodi="http://sodipodi.sourceforge.net/DTD/sodipodi-0.dtd" xmlns:inkscape="http://www.inkscape.org/namespaces/inkscape" version="1.1" id="Capa_1" width="300" height="60" viewBox="0 0 374.99999 64.000001" xml:space="preserve" sodipodi:docname="logo-yodeyma.svg" inkscape:version="0.92.2 5c3e80d, 2017-08-06"><metadata id="metadata45"><rdf:RDF><cc:Work rdf:about=""><dc:format>image/svg+xml</dc:format><dc:type rdf:resource="http://purl.org/dc/dcmitype/StillImage"/><dc:title/></cc:Work></rdf:RDF></metadata><defs id="defs43"/><sodipodi:namedview pagecolor="#ffffff" bordercolor="#666666" borderopacity="1" objecttolerance="10" gridtolerance="10" guidetolerance="10" inkscape:pageopacity="0" inkscape:pageshadow="2" inkscape:window-width="1920" inkscape:window-height="1023" id="namedview41" showgrid="false" inkscape:zoom="6.3430204" inkscape:cx="316.77802" inkscape:cy="29.572641" inkscape:window-x="0" inkscape:window-y="0" inkscape:window-maximized="1" inkscape:current-layer="Capa_1"/><g id="g38" transform="matrix(1.6145833,0,0,1.6145833,-492.23957,-447.85416)"><path class="st0" d="m 366.5,284.4 c -0.7,-1.2 -1.6,-2.1 -2.7,-2.9 -1.2,-0.8 -2.5,-1.3 -4.1,-1.7 -1.6,-0.4 -3.3,-0.6 -5.1,-0.6 -1.8,0 -3.5,0.2 -5.1,0.6 -1.6,0.4 -3,0.9 -4.1,1.7 -1.2,0.8 -2.1,1.7 -2.7,2.9 -0.7,1.2 -1,2.6 -1,4.2 0,1.6 0.3,3 1,4.2 0.7,1.2 1.6,2.1 2.7,2.9 1.2,0.8 2.5,1.3 4.1,1.7 1.6,0.4 3.3,0.6 5.1,0.6 1.8,0 3.6,-0.2 5.1,-0.6 1.6,-0.4 3,-0.9 4.1,-1.7 1.2,-0.8 2.1,-1.7 2.7,-2.9 0.7,-1.2 1,-2.6 1,-4.2 0,-1.7 -0.3,-3.1 -1,-4.2 m -28.2,-0.3 c 0.9,-1.3 2.1,-2.4 3.6,-3.2 1.5,-0.9 3.4,-1.6 5.6,-2 2.2,-0.5 4.5,-0.7 7.1,-0.7 2.6,0 5,0.2 7.1,0.7 2.2,0.5 4,1.1 5.5,2 1.5,0.9 2.7,2 3.6,3.2 0.9,1.3 1.3,2.7 1.3,4.4 0,1.6 -0.4,3.1 -1.3,4.4 -0.9,1.3 -2.1,2.4 -3.6,3.2 -1.5,0.9 -3.4,1.5 -5.5,2 -2.2,0.4 -4.5,0.6 -7.1,0.6 -2.6,0 -4.9,-0.2 -7.1,-0.6 -2.2,-0.4 -4,-1.1 -5.6,-2 -1.5,-0.9 -2.7,-2 -3.6,-3.2 -0.9,-1.3 -1.3,-2.7 -1.3,-4.4 0,-1.6 0.4,-3.1 1.3,-4.4" id="path4" inkscape:connector-curvature="0" style="fill:#000"/><path class="st0" d="m 382.9,297.2 c 0.7,0.1 1.5,0.2 2.7,0.2 1.1,0 2.3,0.1 3.5,0.1 1.7,0 3.4,-0.1 5.1,-0.4 1.7,-0.3 3.2,-0.7 4.6,-1.4 1.4,-0.7 2.5,-1.7 3.3,-2.9 0.9,-1.2 1.3,-2.8 1.3,-4.7 0,-1.7 -0.3,-3.1 -1,-4.2 -0.7,-1.1 -1.6,-1.9 -2.8,-2.6 -1.2,-0.6 -2.6,-1.1 -4.2,-1.3 -1.6,-0.2 -3.4,-0.4 -5.3,-0.4 -1.4,0 -2.7,0 -3.9,0.1 -1.2,0.1 -2.3,0.1 -3.3,0.2 -0.1,0.9 -0.2,1.9 -0.2,2.9 0,1 -0.1,2 -0.1,3.1 v 5 c 0,2.2 0.1,4.3 0.3,6.3 m -4.3,-14.9 c -0.1,-1.2 -0.2,-2.5 -0.3,-3.7 1.2,0 2.4,0.1 3.5,0.1 1.2,0 2.3,0.1 3.5,0.1 1.2,0 2.4,0 3.5,-0.1 1.2,-0.1 2.4,-0.1 3.5,-0.1 2.8,0 5.1,0.2 7.1,0.7 2,0.5 3.6,1.1 4.8,1.9 1.2,0.8 2.2,1.8 2.7,3 0.6,1.2 0.9,2.5 0.9,4 0,1.9 -0.5,3.5 -1.6,4.9 -1.1,1.4 -2.5,2.4 -4.1,3.2 -1.7,0.8 -3.5,1.4 -5.5,1.7 -2,0.3 -3.9,0.5 -5.8,0.5 -1.1,0 -2.1,0 -3.1,0 -1,0 -2.1,0 -3.1,0 h -3.1 c -1,0 -2.1,0 -3.1,0.1 0.1,-1.2 0.2,-2.4 0.3,-3.6 0.1,-1.2 0.1,-2.5 0.1,-3.8 v -5 c -0.1,-1.5 -0.1,-2.7 -0.2,-3.9" id="path6" inkscape:connector-curvature="0" style="fill:#000"/><path class="st0" d="m 414.8,278.5 c 1.4,0 2.8,0.1 4.1,0.1 1.4,0 2.8,0.1 4.2,0.1 1.4,0 2.8,0 4.2,-0.1 1.4,0 2.8,-0.1 4.2,-0.1 -0.1,0.3 -0.1,0.6 -0.1,0.9 0,0.3 0,0.6 0.1,0.9 -1,0 -1.9,-0.1 -2.7,-0.1 -0.8,0 -1.7,-0.1 -2.6,-0.1 -0.9,0 -1.9,-0.1 -3,-0.1 -1.1,0 -2.4,0 -3.9,0 0,0.6 -0.1,1.2 -0.1,1.8 0,0.6 -0.1,1.2 -0.1,1.9 0,0.7 0,1.5 0,2.2 0,0.7 0,1.2 0,1.6 1.4,0 2.6,0 3.7,0 1.1,0 2.1,0 3,-0.1 0.9,0 1.7,-0.1 2.5,-0.1 0.8,0 1.5,-0.1 2.2,-0.1 -0.1,0.3 -0.1,0.6 -0.1,0.9 0,0.3 0,0.6 0.1,0.9 -0.8,-0.1 -1.8,-0.1 -2.8,-0.1 -1.1,0 -2.2,-0.1 -3.2,-0.1 -1.1,0 -2.1,0 -3,0 -1,0 -1.7,0 -2.3,0 0,0.2 0,0.4 0,0.6 0,0.2 0,0.5 0,0.8 v 1.1 1.7 c 0,1.1 0,2 0,2.7 0,0.7 0,1.2 0.1,1.6 h 3.3 c 1.2,0 2.4,0 3.5,0 1.1,0 2.2,-0.1 3.2,-0.1 1,0 1.9,-0.1 2.6,-0.2 -0.1,0.1 -0.1,0.3 -0.1,0.4 0,0.1 0,0.3 0,0.4 0,0.3 0,0.6 0.1,0.8 -1.4,-0.1 -2.8,-0.1 -4.2,-0.1 h -4.2 -4.2 c -1.4,0 -2.8,0 -4.2,0.1 0.6,-7.4 0.5,-14.5 -0.3,-20.1 z" id="path8" inkscape:connector-curvature="0" style="fill:#000"/><path class="st0" d="m 476.3,286.1 c 2.2,2.6 4.5,5.2 6.9,7.9 0.3,-0.4 0.8,-0.9 1.4,-1.6 0.6,-0.7 1.3,-1.5 2.1,-2.3 0.8,-0.9 1.6,-1.8 2.5,-2.9 0.9,-1 1.8,-2.1 2.7,-3.1 0.9,-1.1 1.8,-2.1 2.7,-3.1 0.9,-1 1.7,-2 2.5,-2.9 h 0.6 c 0.3,1.8 0.7,3.6 1,5.3 0.3,1.7 0.6,3.4 0.9,5.1 0.3,1.7 0.6,3.3 0.9,4.9 0.3,1.6 0.7,3.2 1,4.8 -0.4,-0.1 -0.7,-0.1 -1.1,-0.1 h -1.1 -1.1 c -0.4,0 -0.7,0 -1.1,0.1 -0.3,-2.6 -0.7,-5 -1,-7.4 -0.3,-2.4 -0.8,-4.9 -1.3,-7.4 h -0.1 c -2.2,2.4 -4.3,4.8 -6.4,7.2 -2.1,2.4 -4.1,4.9 -5.9,7.5 H 482 c -1.9,-2.4 -3.8,-4.8 -5.9,-7.3 -2,-2.4 -4.1,-4.9 -6.2,-7.4 h 0.1 c -0.2,1.2 -0.5,2.5 -0.7,3.9 -0.3,1.4 -0.5,2.8 -0.7,4.1 -0.2,1.4 -0.4,2.6 -0.6,3.8 -0.2,1.2 -0.2,2.2 -0.2,3 -0.5,-0.1 -1,-0.1 -1.6,-0.1 -0.6,0 -1.1,0 -1.6,0.1 0.4,-1.6 0.8,-3.2 1.3,-4.9 0.4,-1.7 0.9,-3.5 1.3,-5.2 0.4,-1.7 0.8,-3.5 1.1,-5.2 0.3,-1.7 0.6,-3.3 0.9,-4.9 h 0.8 c 1.9,2.9 4.1,5.6 6.3,8.1" id="path10" inkscape:connector-curvature="0" style="fill:#000"/><path class="st0" d="m 513.5,289.4 c 0.8,0 1.7,0 2.5,0 0.9,0 1.7,0 2.5,0 0.9,0 1.7,0 2.6,0 0.9,0 1.8,0 2.6,-0.1 l -5.2,-7.3 z m 20.8,9 c -0.4,-0.1 -0.9,-0.1 -1.2,-0.1 h -1.2 -1.2 c -0.4,0 -0.8,0 -1.2,0.1 -0.2,-0.4 -0.5,-1 -0.9,-1.6 -0.4,-0.6 -0.8,-1.3 -1.2,-2 -0.5,-0.7 -0.9,-1.4 -1.4,-2.1 -0.5,-0.7 -0.9,-1.4 -1.3,-2 -1,0 -2,0 -3,-0.1 -1,0 -2.1,0 -3.1,0 -1,0 -1.9,0 -2.9,0 -0.9,0 -1.9,0 -2.9,0.1 -1,1.5 -1.9,3 -2.7,4.3 -0.8,1.4 -1.4,2.5 -1.8,3.4 -0.5,-0.1 -1.1,-0.1 -1.7,-0.1 -0.6,0 -1.2,0 -1.7,0.1 2.5,-3.4 5,-6.7 7.4,-10 2.4,-3.3 4.8,-6.7 7.3,-10.2 h 0.9 c 0.8,1.1 1.6,2.3 2.4,3.6 0.9,1.3 1.8,2.6 2.7,3.9 0.9,1.3 1.8,2.6 2.7,4 0.9,1.3 1.8,2.5 2.6,3.6 0.8,1.1 1.5,2.1 2.2,3 0.2,0.9 0.8,1.6 1.2,2.1" id="path12" inkscape:connector-curvature="0" style="fill:#000"/><polygon class="st0" points="325.4,287.4 324.2,288.6 " id="polygon14" style="fill:#000"/><polygon class="st0" points="324.2,288.6 324.7,288.1 " id="polygon16" style="fill:#000"/><path class="st0" d="m 319.3,282.7 c -0.9,-1.2 -3.4,-3.5 -6.4,-4.2 -2.2,0.6 -3.8,0.8 -5.2,1 l 0.2,0.7 h 0.9 c 1.5,0 3.1,0.2 6.5,3.2 1.1,1 4.9,4.8 5.9,6.3 l 2.2,-2.2 z" id="path18" inkscape:connector-curvature="0" style="fill:#000"/><path class="st0" d="m 334.5,278.9 c -1,0 -1.9,1 -2.7,1.8 l -7.1,7.4 0.3,-0.3 -0.3,0.3 -0.4,0.5 v 0 l -2.8,2.8 v 3.3 c 0,1.1 0,3.1 0,3.7 h 3.8 v -3.7 -4.5 c 0,-0.6 2.3,-3.1 5.5,-6.2 3.7,-3.6 4.5,-4.4 6.3,-4.6 v -0.5 z" id="path20" inkscape:connector-curvature="0" style="fill:#000"/><polygon class="st0" points="451.1,288.6 451.5,288.1 " id="polygon22" style="fill:#000"/><path class="st0" d="m 446.1,282.7 c -0.9,-1.2 -3.4,-3.5 -6.4,-4.2 -2.2,0.6 -3.8,0.8 -5.2,1 l 0.2,0.7 h 0.9 c 1.5,0 3.1,0.2 6.5,3.2 1.1,1 4.9,4.8 5.9,6.3 l 2.2,-2.2 z" id="path24" inkscape:connector-curvature="0" style="fill:#000"/><path class="st0" d="m 461.3,278.9 c -1,0 -1.9,1 -2.7,1.8 l -7.1,7.4 0.3,-0.3 -0.3,0.3 -0.4,0.5 v 0 l -2.8,2.8 v 3.3 c 0,1.1 0,3.1 0,3.7 h 3.8 v -3.7 -4.5 c 0,-0.6 2.3,-3.1 5.5,-6.2 3.7,-3.6 4.5,-4.4 6.3,-4.6 v -0.5 z" id="path26" inkscape:connector-curvature="0" style="fill:#000"/><path class="st0" d="m 379.5,311.8 v 1.5 h 2.9 c 0.9,0 1,-0.5 1,-0.8 0,-0.4 -0.3,-0.7 -1,-0.7 z m 2.9,-0.8 c 1,0 2,0.5 2,1.5 0,1.1 -0.9,1.6 -2,1.6 h -2.9 v 2.3 h -1 V 311 Z" id="path28" inkscape:connector-curvature="0" style="fill:#000"/><path class="st0" d="m 402.1,312 -1.1,1.9 h 2.1 z m 3.5,4.4 h -1.1 l -1,-1.8 h -3 l -1,1.8 h -1.1 l 3.1,-5.4 h 1.1 z" id="path30" inkscape:connector-curvature="0" style="fill:#000"/><path class="st0" d="m 421.4,311.8 v 1.6 h 3 c 0.7,0 1.1,-0.3 1.1,-0.8 0,-0.6 -0.6,-0.8 -1.1,-0.8 z m 3.1,-0.8 c 1.1,0 2.1,0.4 2.1,1.5 0,1.2 -1,1.5 -1.5,1.6 l 1.4,2.3 h -1.1 l -1.4,-2.3 h -2.5 v 2.3 h -1 V 311 Z" id="path32" inkscape:connector-curvature="0" style="fill:#000"/><rect x="441.70001" y="311" class="st0" width="1" height="5.4000001" id="rect34" style="fill:#000"/><path class="st0" d="m 458.4,314.9 c 0.5,0.2 1.1,0.8 2.7,0.8 0.9,0 2.2,-0.3 2.2,-0.9 0,-0.9 -1.3,-0.9 -2.1,-0.9 h -1 c -0.9,0 -2,-0.4 -2,-1.4 0,-1.1 1.6,-1.7 2.9,-1.7 1.5,0 2.5,0.6 2.8,0.7 l -0.5,0.6 c -0.6,-0.3 -1.1,-0.6 -2.2,-0.6 -0.8,0 -1.9,0.3 -1.9,0.9 0,0.4 0.4,0.6 1.2,0.6 h 0.9 c 1.6,0 3.1,0.3 3.1,1.7 0,1.1 -1.5,1.7 -3.2,1.7 -2,0 -2.9,-0.8 -3.4,-1.1 z" id="path36" inkscape:connector-curvature="0" style="fill:#000"/></g></svg>