<?xml version="1.0" encoding="UTF-8" standalone="no"?>
<!-- Created with Inkscape (http://www.inkscape.org/) -->

<svg
   width="300"
   height="160"
   viewBox="0 0 550 600"
   version="1.1"
   id="svg5"
   xml:space="preserve"
   inkscape:version="1.2.1 (9c6d41e, 2022-07-14)"
   sodipodi:docname="partner-casa-forciniti.svg"
   xmlns:inkscape="http://www.inkscape.org/namespaces/inkscape"
   xmlns:sodipodi="http://sodipodi.sourceforge.net/DTD/sodipodi-0.dtd"
   xmlns="http://www.w3.org/2000/svg"
   xmlns:svg="http://www.w3.org/2000/svg"><sodipodi:namedview
     id="namedview7"
     pagecolor="#505050"
     bordercolor="#eeeeee"
     borderopacity="1"
     inkscape:showpageshadow="0"
     inkscape:pageopacity="0"
     inkscape:pagecheckerboard="0"
     inkscape:deskcolor="#505050"
     inkscape:document-units="px"
     showgrid="false"
     inkscape:zoom="0.921875"
     inkscape:cx="84.610169"
     inkscape:cy="243.52542"
     inkscape:window-width="1440"
     inkscape:window-height="847"
     inkscape:window-x="1938"
     inkscape:window-y="70"
     inkscape:window-maximized="0"
     inkscape:current-layer="layer1" /><defs
     id="defs2" /><g
     inkscape:label="Layer 1"
     inkscape:groupmode="layer"
     id="layer1"><path
       style="fill:#6b140e;fill-opacity:1;stroke-width:4.93989"
       d="M 265.37284,461.05938 C 226.2044,412.31947 163.14666,401.37506 46.778942,423.11981 c -90.891628,16.98418 -142.092736,15.76375 -181.750502,-4.33236 -29.37118,-14.8835 -60.50016,-43.83942 -73.29707,-68.18031 -11.57478,-22.01625 -11.56565,-74.85413 0.0167,-96.88557 30.69189,-58.38068 103.32427,-96.83718 147.798633,-78.2546 31.128836,13.00646 38.239811,46.30777 14.609311,68.41671 -16.223409,15.17882 -44.195321,29.98038 -51.840652,27.43193 -3.012322,-1.0041 5.358904,-7.25219 18.602715,-13.8847 13.243819,-6.63249 28.413689,-18.0306 33.710818,-25.32916 8.479763,-11.68364 8.872385,-15.10192 3.284161,-28.59314 -7.671454,-18.52052 -18.315913,-24.82525 -41.913205,-24.82525 -38.809781,0 -78.160831,33.79716 -96.556061,82.92843 -12.48285,33.34003 -12.33251,53.13408 0.6674,87.87948 15.1313,40.442 39.43357,62.66553 80.76006,73.85212 33.045818,8.94507 33.954646,8.92612 78.555368,-1.63986 24.8175521,-5.87931 64.017884,-16.38311 87.111858,-23.3418 102.138754,-30.7765 193.751774,-20.52308 239.046424,26.7543 l 13.98046,14.59249 -19.16454,20.54542 -19.16454,20.54539 z M -136.38807,353.57796 c -5.45268,-6.57006 -5.318,-10.06268 0.80956,-20.99452 9.44306,-16.84678 32.95781,-28.6413 43.652578,-21.89522 9.049552,5.7083 10.628745,24.14839 1.924047,22.46694 -6.661828,-1.28685 -14.099435,17.40369 -8.954089,22.5014 1.850076,1.83294 8.919356,-3.33619 15.709502,-11.48702 7.127915,-8.55625 10.186461,-10.47236 7.236741,-4.53362 -8.503782,17.12087 -19.36491,23.94848 -27.438099,17.24832 -4.76479,-3.95442 -7.98289,-4.14579 -10.17131,-0.60486 -4.68556,7.5814 -15.27796,6.32466 -22.76893,-2.70142 z m 40.25749,-30.6784 c 0.283825,-6.84167 1.12213,-6.56597 4.592687,1.51043 3.716252,8.64819 4.288765,8.78282 4.592686,1.07994 0.555091,-14.06887 -13.760123,-15.82103 -27.073543,-3.31374 -11.97859,11.25329 -15.50161,24.35332 -8.4467,31.40821 4.76387,4.76389 25.885236,-19.84628 26.33487,-30.68484 z m 46.384853,31.61667 c -8.881315,-6.49417 -8.623061,-6.77626 3.99574,-4.36402 15.665553,2.99465 17.961312,-5.2047 5.356885,-19.1324 -7.712944,-8.52273 -8.483935,-8.54284 -14.899923,-0.38898 -5.886134,7.4805 -6.026168,6.86739 -1.076825,-4.71411 6.641139,-15.54031 18.554146,-21.59144 26.171591,-13.29367 3.913504,4.263 3.691842,4.89102 -0.82603,2.34034 -3.396171,-1.91739 -6.174851,-1.06227 -6.174851,1.90029 0,2.96255 3.249807,6.63351 7.221777,8.15772 3.97199,1.52418 8.616367,7.16521 10.320864,12.5356 2.981634,9.39427 3.377099,9.42377 10.4341656,0.77861 4.0342857,-4.94215 5.7206177,-5.6513 3.7474041,-1.57589 -11.6447537,24.0507 -27.1551517,30.27174 -44.2707977,17.75651 z M 7.4565794,354.28638 C -4.714078,339.62161 15.122268,312.41721 39.309112,310.60246 c 16.107206,-1.20858 27.96695,12.57596 18.749924,21.79298 -4.42334,4.42334 -5.138326,3.30518 -3.033446,-4.7439 4.184339,-16.0009 -11.123871,-19.25123 -25.787596,-5.47539 -12.264766,11.52216 -15.843347,26.50563 -7.55406,31.62868 2.499378,1.5447 9.340932,-3.28934 15.203437,-10.74231 l 10.659095,-13.55084 -3.389235,13.50377 c -4.400539,17.53318 3.633196,17.49563 17.302048,-0.0808 6.611181,-8.50117 8.714831,-9.73554 5.621611,-3.29861 -8.178608,17.0195 -19.170892,23.97163 -27.272003,17.2483 -4.764775,-3.95444 -7.98289,-4.1458 -10.171295,-0.60486 -4.552044,7.36536 -15.208941,6.40781 -22.1810126,-1.99302 z M 89.120819,319.11725 c -9.959934,-9.95993 -10.005153,-33.6255 -0.08004,-41.86264 6.827586,-5.66639 7.024504,-4.93149 1.76923,6.60259 -4.888519,10.72913 -4.487973,15.15433 2.310936,25.53078 4.911441,7.49581 12.859035,12.55206 19.729755,12.55206 15.50726,0 42.32521,-18.73217 56.11646,-39.19698 10.75536,-15.95986 36.92095,-89.70439 33.18858,-93.53796 -4.88753,-5.02004 -38.3258,6.20312 -51.49384,17.2833 -17.8095,14.98571 -18.97375,28.81916 -3.85033,45.74935 l 11.11474,12.4426 -12.3497,-7.74492 c -15.8827,-9.96058 -19.22866,-35.48576 -6.52232,-49.75663 10.94632,-12.29415 36.37636,-23.55555 53.19218,-23.55555 9.49564,0 14.76608,-4.62227 22.45463,-19.69307 10.71221,-20.99769 39.92662,-39.94451 60.35075,-39.14006 9.12455,0.35938 8.28674,1.32125 -4.33353,4.97499 -17.90152,5.1828 -42.37197,31.58583 -40.11853,43.28705 1.8628,9.6728 78.63968,19.62296 155.27596,20.12355 74.23665,0.4849 144.86707,-24.67865 174.30158,-62.09858 l 9.34207,-11.87646 15.2894,18.54868 c 8.40917,10.20176 14.60286,20.60826 13.76375,23.12554 -3.19432,9.58298 -52.65873,32.97958 -89.81604,42.4828 -51.74625,13.23446 -104.40663,12.49263 -180.40409,-2.54138 -71.024,-14.0502 -103.73761,-15.7416 -103.73761,-5.3637 0,15.40865 -20.2922,71.03189 -33.12877,90.80979 -8.26501,12.7343 -21.71251,25.00266 -33.8417,30.8743 -24.35431,11.78972 -57.749229,12.75495 -68.523585,1.98057 z M 216.90927,314.7721 c -14.138,-21.57731 1.96719,-47.1708 29.68307,-47.1708 22.55463,0 30.99387,10.88712 22.13132,28.55062 -11.50484,22.92977 -11.28698,23.67005 3.22797,10.96846 10.3917,-9.0934 12.26243,-9.74467 7.09495,-2.46995 -18.58027,26.15734 -48.44306,31.02173 -62.13731,10.12167 z m 38.84298,-0.99008 c -1.19982,-3.12842 -6.47362,-6.81048 -11.71956,-8.18232 -6.29045,-1.64499 -9.309,-6.43617 -8.86533,-14.07145 0.672,-11.56474 0.67503,-11.56525 2.81351,-0.46249 1.38861,7.20938 5.69385,11.11473 12.25288,11.11473 8.35057,0 9.66283,-2.35005 7.53317,-13.49074 -2.46702,-12.90529 -2.25838,-13.06607 4.80782,-3.7049 7.35306,9.74117 7.37866,9.74076 5.61595,-0.094 -2.12623,-11.86287 -21.90353,-13.56456 -34.93102,-3.00556 -9.70815,7.86862 -11.41648,25.42731 -3.26678,33.577 7.0739,7.0739 28.57879,5.67113 25.75936,-1.68027 z m 43.15768,5.92515 c -6.75798,-8.14283 -3.26344,-23.65159 7.30574,-32.42323 6.08373,-5.04906 5.51671,-7.31129 -3.89623,-15.54467 l -11.0161,-9.6357 11.01338,5.33836 c 6.05733,2.9361 17.0224,3.8302 24.36683,1.98686 l 13.35341,-3.3515 -11.27209,11.87676 c -13.19231,13.90006 -19.83699,29.10442 -16.52436,37.81115 3.94563,10.37036 14.58679,6.9437 28.02258,-9.02383 7.03387,-8.35926 12.78884,-12.70411 12.78884,-9.65523 0,10.03901 -24.01556,29.7938 -36.21974,29.7938 -6.58321,0 -14.64821,-3.22776 -17.92226,-7.17277 z m 79.82942,1.24489 c -17.88555,-17.88556 3.93812,-53.35075 32.82971,-53.35075 16.77535,0 25.967,11.34965 16.69817,20.61851 -3.55309,3.55307 -4.89636,2.31032 -4.36087,-4.03456 1.25,-14.80962 -18.63425,-14.31915 -30.48927,0.75205 -10.04269,12.76723 -9.54625,25.82025 1.26356,33.2222 9.11968,6.2446 16.39296,4.20033 32.11045,-9.02504 9.01451,-7.58517 14.03448,-9.71981 12.31396,-5.23625 -7.30565,19.03816 -47.13053,30.28904 -60.36571,17.05384 z m 75.78305,1.31611 c -1.56761,-2.53645 0.40408,-14.05758 4.38172,-25.60254 3.97756,-11.54498 6.10928,-22.80736 4.73712,-25.02757 -1.37222,-2.22024 1.2616,-4.03676 5.85286,-4.03676 8.48971,0 8.38538,8.32833 -0.55686,44.45898 l -3.05655,12.34971 12.74406,-13.86016 c 14.0323,-15.26123 17.16695,-11.94233 5.05409,5.35121 -7.83237,11.18227 -23.9986,14.71265 -29.15644,6.36713 z m 51.66603,-3.45991 c 0,-12.90064 11.0696,-46.26708 15.34952,-46.26708 2.14826,0 0.6849,7.70895 -3.25189,17.13097 -11.84984,28.36066 -7.84513,31.48163 6.54234,5.09855 11.32471,-20.7668 15.99852,-24.94389 29.35445,-26.23475 13.37297,-1.29253 16.36896,0.39248 18.9446,10.65462 1.68273,6.70447 0.64753,16.69677 -2.30045,22.2051 -9.78088,18.27571 -5.19542,23.23921 7.57053,8.19467 l 12.57513,-14.81964 -7.93975,16.05461 c -5.12892,10.37098 -11.55314,16.05463 -18.14646,16.05463 -9.2289,0 -10.04493,-2.4728 -8.51794,-25.81186 1.41013,-21.5533 0.24551,-26.09881 -7.05896,-27.55138 -6.52787,-1.29814 -11.83963,5.25193 -20.93223,25.81183 -11.84234,26.77763 -22.18889,35.86092 -22.18889,19.47973 z m 93.85785,-2.0534 c 0,-5.56878 3.42527,-16.74885 7.61172,-24.84454 4.18642,-8.09564 6.27822,-16.87707 4.64836,-19.51421 -1.62989,-2.63713 0.50223,-4.7948 4.73798,-4.7948 9.58283,0 9.70179,7.90777 0.51068,33.95812 -8.01837,22.72645 -2.36832,27.08277 10.21595,7.87674 4.50606,-6.87714 9.18082,-11.51592 10.38832,-10.30836 1.20757,1.20751 -1.57221,7.94573 -6.17717,14.97379 -10.51525,16.04834 -31.93584,17.82799 -31.93584,2.65326 z m 47.16402,0.2453 c 2.09846,-6.79233 6.68792,-21.79722 10.19871,-33.34425 l 6.38326,-20.99451 h -16.44849 c -9.04661,0 -19.1142,-3.21204 -22.37239,-7.13792 -8.98326,-10.82415 -4.49294,-29.82289 7.18417,-30.39673 7.52064,-0.36956 7.81548,0.008 1.23496,1.57857 -10.91299,2.60561 -11.54475,23.90648 -0.83092,28.01777 25.0954,9.62998 36.2347,-1.60037 27.2245,-27.44708 -4.7954,-13.75606 -4.12505,-17.20278 5.2962,-27.2312 17.23651,-18.34741 20.60492,-14.37581 17.07002,20.12682 l -3.23839,31.60848 18.61088,-4.32125 c 10.23594,-2.3767 24.16819,-4.1976 30.96056,-4.0464 6.79234,0.1512 -1.83375,3.35212 -19.16914,7.11318 -17.33536,3.76109 -31.86864,7.47452 -32.2962,8.2521 -0.42754,0.77757 -6.01521,14.75145 -12.417,31.05308 -12.02274,30.61489 -24.4568,50.04044 -17.39073,27.16934 z m 41.75395,-0.15865 c 0,-5.52114 3.14525,-17.56605 6.9894,-26.76648 3.84424,-9.20042 5.69668,-18.02082 4.11662,-19.60087 -1.58009,-1.58009 0.83207,-2.87286 5.36027,-2.87286 10.1973,0 10.4439,9.84594 0.82333,32.8712 -8.79108,21.04002 -8.83884,21.46754 -2.39733,21.46754 2.75684,0 9.4174,-7.22457 14.80118,-16.05462 5.3838,-8.83005 9.79704,-13.57573 9.80716,-10.54596 0.0104,3.02976 -4.58876,11.36581 -10.21985,18.52458 -12.41062,15.77755 -29.28078,17.49302 -29.28078,2.97747 z m 61.74859,-64.05988 c -6.51443,-2.79933 -7.35578,-4.33797 -2.46994,-4.51702 4.07541,-0.14939 10.74425,1.88328 14.81966,4.51702 9.02998,5.83564 1.23049,5.83564 -12.34972,0 z"
       id="path4042"
       inkscape:label="casa-forciniti"
       inkscape:export-filename="partner-casa-forciniti.svg"
       inkscape:export-xdpi="100"
       inkscape:export-ydpi="100" /></g></svg>
