<svg width="200" height="103" viewBox="0 0 400 203" fill="none" xmlns="http://www.w3.org/2000/svg">
<g clip-path="url(#clip0_7_2)">
<path fill-rule="evenodd" clip-rule="evenodd" d="M228 203.002L17.2999 203.002L17.2999 170.494L48.6039 170.494L116.028 170.494L147.332 170.494L228 170.494L228 203.002ZM147.332 160.11L147.332 117.217C147.332 105.779 144.422 95.4447 138.603 86.214C132.583 76.7827 124.657 69.2577 114.824 63.639C104.991 58.0203 94.0549 55.211 82.0149 55.211C69.9749 55.211 59.0385 58.0203 49.2059 63.639C39.3732 69.2577 31.6475 76.7827 26.0289 86.214C20.2095 95.4447 17.2999 105.779 17.2999 117.217L17.2999 160.11L48.6039 160.11L48.6039 117.819C48.6039 112.401 50.1089 107.485 53.1189 103.07C56.1289 98.6553 60.1422 95.1437 65.1589 92.535C70.1755 89.7257 75.7942 88.321 82.0149 88.321C88.2355 88.321 93.9545 89.7257 99.1719 92.535C104.189 95.1437 108.302 98.6553 111.513 103.07C114.523 107.485 116.028 112.401 116.028 117.819L116.028 160.11L147.332 160.11Z" fill="#F1FAEE"/>
<rect x="405.999" y="203" width="200" height="32.5" transform="rotate(180 405.999 203)" fill="#F1FAEE"/>
<line x1="81.3173" y1="7.07107" x2="7.07104" y2="81.3173" stroke="#ED2424" stroke-width="10" stroke-linecap="round"/>
<line y1="-5" x2="26" y2="-5" transform="matrix(-4.37114e-08 1 1 4.37114e-08 31.3173 36)" stroke="#ED2424" stroke-width="10"/>
<path d="M36.3173 36H16.3173" stroke="#ED2424" stroke-width="5"/>
<line x1="156.246" y1="82" x2="82" y2="7.75379" stroke="#ED2424" stroke-width="10" stroke-linecap="round"/>
<path d="M183.76 160.28C177.531 160.28 171.941 158.744 166.992 155.672C162.128 152.6 158.245 148.419 155.344 143.128C152.528 137.837 151.12 131.907 151.12 125.336C151.12 118.765 152.528 112.835 155.344 107.544C158.245 102.253 162.128 98.072 166.992 95C171.941 91.928 177.531 90.392 183.76 90.392C189.733 90.392 195.152 91.6293 200.016 94.104C204.965 96.4933 208.72 99.7787 211.28 103.96L203.984 112.92C202.619 110.957 200.869 109.165 198.736 107.544C196.603 105.923 194.341 104.643 191.952 103.704C189.563 102.765 187.259 102.296 185.04 102.296C180.944 102.296 177.275 103.32 174.032 105.368C170.875 107.331 168.357 110.061 166.48 113.56C164.603 117.059 163.664 120.984 163.664 125.336C163.664 129.688 164.645 133.613 166.608 137.112C168.571 140.525 171.173 143.256 174.416 145.304C177.659 147.352 181.243 148.376 185.168 148.376C187.472 148.376 189.691 147.992 191.824 147.224C194.043 146.456 196.176 145.304 198.224 143.768C200.272 142.232 202.192 140.355 203.984 138.136L211.28 147.096C208.549 150.936 204.624 154.093 199.504 156.568C194.469 159.043 189.221 160.28 183.76 160.28ZM238.052 160.28C232.505 160.28 227.428 158.744 222.82 155.672C218.297 152.6 214.671 148.419 211.94 143.128C209.209 137.837 207.844 131.864 207.844 125.208C207.844 118.467 209.209 112.493 211.94 107.288C214.756 101.997 218.511 97.8587 223.204 94.872C227.983 91.8853 233.316 90.392 239.204 90.392C242.703 90.392 245.903 90.904 248.804 91.928C251.705 92.952 254.223 94.4027 256.356 96.28C258.575 98.072 260.367 100.163 261.732 102.552C263.183 104.941 264.079 107.501 264.42 110.232L261.476 109.208V91.8H274.788V159H261.476V143L264.548 142.104C264.036 144.408 262.969 146.669 261.348 148.888C259.812 151.021 257.807 152.941 255.332 154.648C252.943 156.355 250.255 157.72 247.268 158.744C244.367 159.768 241.295 160.28 238.052 160.28ZM241.508 148.12C245.519 148.12 249.06 147.139 252.132 145.176C255.204 143.213 257.593 140.525 259.3 137.112C261.092 133.613 261.988 129.645 261.988 125.208C261.988 120.856 261.092 116.973 259.3 113.56C257.593 110.147 255.204 107.459 252.132 105.496C249.06 103.533 245.519 102.552 241.508 102.552C237.583 102.552 234.084 103.533 231.012 105.496C228.025 107.459 225.636 110.147 223.844 113.56C222.137 116.973 221.284 120.856 221.284 125.208C221.284 129.645 222.137 133.613 223.844 137.112C225.636 140.525 228.025 143.213 231.012 145.176C234.084 147.139 237.583 148.12 241.508 148.12ZM304.076 160.28C298.444 160.28 293.367 159.299 288.844 157.336C284.321 155.373 280.567 152.472 277.58 148.632L286.54 140.952C289.1 143.939 291.873 146.115 294.86 147.48C297.932 148.76 301.388 149.4 305.228 149.4C306.764 149.4 308.172 149.229 309.452 148.888C310.817 148.461 311.969 147.864 312.908 147.096C313.932 146.328 314.7 145.432 315.212 144.408C315.724 143.299 315.98 142.104 315.98 140.824C315.98 138.605 315.169 136.813 313.548 135.448C312.695 134.851 311.329 134.211 309.452 133.528C307.66 132.76 305.313 131.992 302.412 131.224C297.463 129.944 293.409 128.493 290.252 126.872C287.095 125.251 284.663 123.416 282.956 121.368C281.676 119.747 280.737 117.997 280.14 116.12C279.543 114.157 279.244 112.024 279.244 109.72C279.244 106.904 279.841 104.344 281.036 102.04C282.316 99.6507 284.023 97.6027 286.156 95.896C288.375 94.104 290.935 92.7387 293.836 91.8C296.823 90.8613 299.98 90.392 303.308 90.392C306.465 90.392 309.58 90.8187 312.652 91.672C315.809 92.5253 318.711 93.7627 321.356 95.384C324.001 97.0053 326.22 98.9253 328.012 101.144L320.46 109.464C318.839 107.843 317.047 106.435 315.084 105.24C313.207 103.96 311.287 102.979 309.324 102.296C307.361 101.613 305.569 101.272 303.948 101.272C302.156 101.272 300.535 101.443 299.084 101.784C297.633 102.125 296.396 102.637 295.372 103.32C294.433 104.003 293.708 104.856 293.196 105.88C292.684 106.904 292.428 108.056 292.428 109.336C292.513 110.445 292.769 111.512 293.196 112.536C293.708 113.475 294.391 114.285 295.244 114.968C296.183 115.651 297.591 116.376 299.468 117.144C301.345 117.912 303.735 118.637 306.636 119.32C310.903 120.429 314.401 121.667 317.132 123.032C319.948 124.312 322.167 125.805 323.788 127.512C325.495 129.133 326.689 131.011 327.372 133.144C328.055 135.277 328.396 137.667 328.396 140.312C328.396 144.152 327.287 147.608 325.068 150.68C322.935 153.667 320.033 156.013 316.364 157.72C312.695 159.427 308.599 160.28 304.076 160.28ZM357.262 160.28C351.715 160.28 346.638 158.744 342.03 155.672C337.507 152.6 333.881 148.419 331.15 143.128C328.419 137.837 327.054 131.864 327.054 125.208C327.054 118.467 328.419 112.493 331.15 107.288C333.966 101.997 337.721 97.8587 342.414 94.872C347.193 91.8853 352.526 90.392 358.414 90.392C361.913 90.392 365.113 90.904 368.014 91.928C370.915 92.952 373.433 94.4027 375.566 96.28C377.785 98.072 379.577 100.163 380.942 102.552C382.393 104.941 383.289 107.501 383.63 110.232L380.686 109.208V91.8H393.998V159H380.686V143L383.758 142.104C383.246 144.408 382.179 146.669 380.558 148.888C379.022 151.021 377.017 152.941 374.542 154.648C372.153 156.355 369.465 157.72 366.478 158.744C363.577 159.768 360.505 160.28 357.262 160.28ZM360.718 148.12C364.729 148.12 368.27 147.139 371.342 145.176C374.414 143.213 376.803 140.525 378.51 137.112C380.302 133.613 381.198 129.645 381.198 125.208C381.198 120.856 380.302 116.973 378.51 113.56C376.803 110.147 374.414 107.459 371.342 105.496C368.27 103.533 364.729 102.552 360.718 102.552C356.793 102.552 353.294 103.533 350.222 105.496C347.235 107.459 344.846 110.147 343.054 113.56C341.347 116.973 340.494 120.856 340.494 125.208C340.494 129.645 341.347 133.613 343.054 137.112C344.846 140.525 347.235 143.213 350.222 145.176C353.294 147.139 356.793 148.12 360.718 148.12Z" fill="#ED2424"/>
</g>
<defs>
<clipPath id="clip0_7_2">
<rect width="400" height="203" fill="white"/>
</clipPath>
</defs>
</svg>
